<svg xmlns="http://www.w3.org/2000/svg" xmlns:xlink="http://www.w3.org/1999/xlink" width="1920" zoomAndPan="magnify" viewBox="0 0 1440 959.999988" height="1280" preserveAspectRatio="xMidYMid meet" version="1.0"><defs><clipPath id="e287e09830"><path d="M 198 804 L 1090.519531 804 L 1090.519531 927 L 198 927 Z M 198 804 " clip-rule="nonzero"/></clipPath><clipPath id="3b9e900785"><path d="M 989 804 L 1090.519531 804 L 1090.519531 927 L 989 927 Z M 989 804 " clip-rule="nonzero"/></clipPath><clipPath id="244387b082"><path d="M 198 732 L 1090.519531 732 L 1090.519531 809 L 198 809 Z M 198 732 " clip-rule="nonzero"/></clipPath></defs><g clip-path="url(#e287e09830)"><path fill="#c9cee2" d="M 1090.519531 804.164062 L 1090.117188 914.214844 C 1090.109375 920.765625 1082.019531 926.070312 1072.042969 926.070312 L 218.777344 926.070312 C 208.824219 926.070312 200.746094 920.792969 200.703125 914.257812 L 198.769531 805.171875 Z M 1090.519531 804.164062 " fill-opacity="1" fill-rule="nonzero"/></g><path fill="#b0b8cf" d="M 342.902344 805.007812 L 198.769531 805.171875 L 200.703125 914.257812 C 200.746094 920.792969 208.824219 926.070312 218.777344 926.070312 L 342.902344 926.070312 Z M 342.902344 805.007812 " fill-opacity="1" fill-rule="nonzero"/><path fill="#b0b8cf" d="M 444.75 804.894531 L 618.769531 804.6875 L 618.910156 925.964844 L 444.894531 926.171875 Z M 444.75 804.894531 " fill-opacity="1" fill-rule="nonzero"/><path fill="#b0b8cf" d="M 761.703125 804.542969 L 905.894531 804.371094 L 906.039062 925.984375 L 761.847656 926.15625 Z M 761.703125 804.542969 " fill-opacity="1" fill-rule="nonzero"/><g clip-path="url(#3b9e900785)"><path fill="#b0b8cf" d="M 989.257812 804.277344 L 989.257812 926.070312 L 1072.042969 926.070312 C 1082.019531 926.070312 1090.109375 920.765625 1090.117188 914.214844 L 1090.519531 804.164062 Z M 989.257812 804.277344 " fill-opacity="1" fill-rule="nonzero"/></g><g clip-path="url(#244387b082)"><path fill="#e3e7f0" d="M 1082.34375 808.996094 L 206.640625 808.996094 C 200.664062 808.996094 196.976562 805.578125 199.222656 801.667969 L 226.332031 736.078125 C 227.824219 733.519531 231.914062 732.707031 234.828125 732.707031 L 1050.921875 732.707031 C 1052.539062 732.707031 1054.203125 732.933594 1055.234375 733.515625 L 1055.28125 733.515625 C 1055.640625 733.695312 1055.910156 733.921875 1056.089844 734.144531 C 1057.304688 735.179688 1057.125 735.136719 1057.886719 736.078125 L 1089.761719 801.667969 C 1092.007812 805.082031 1088.277344 808.996094 1082.34375 808.996094 Z M 1082.34375 808.996094 " fill-opacity="1" fill-rule="nonzero"/></g><path fill="#111d33" d="M 366.8125 732.707031 C 361.117188 745.804688 311.640625 777.390625 308.820312 779.640625 L 227.632812 734.597656 C 232.347656 731.296875 231.023438 733.261719 366.8125 732.707031 Z M 366.8125 732.707031 " fill-opacity="0.2" fill-rule="nonzero"/><path fill="#fe90a9" d="M 539.882812 517.285156 L 532.152344 537.109375 C 423.710938 536.253906 302.742188 535.296875 310.394531 535.359375 L 312.417969 534.277344 C 341.824219 519.285156 342.308594 518.003906 345.097656 518.003906 C 347.886719 517.996094 552.894531 517.238281 539.882812 517.285156 Z M 539.882812 517.285156 " fill-opacity="1" fill-rule="nonzero"/><path fill="#e93565" d="M 529.871094 537.40625 L 529.871094 774.890625 C 529.871094 779.347656 526.527344 782.695312 522.347656 782.695312 L 314.964844 782.695312 C 310.785156 782.695312 307.160156 779.347656 307.160156 774.890625 L 307.160156 541.582031 C 307.160156 537.40625 310.785156 533.78125 314.964844 533.78125 L 526.527344 533.78125 C 528.480469 533.78125 529.871094 535.453125 529.871094 537.40625 Z M 529.871094 537.40625 " fill-opacity="1" fill-rule="nonzero"/><path fill="#f45170" d="M 372.386719 533.78125 L 372.386719 782.695312 L 314.964844 782.695312 C 310.785156 782.695312 307.160156 779.347656 307.160156 774.890625 L 307.160156 541.582031 C 307.160156 537.40625 310.785156 533.78125 314.964844 533.78125 Z M 372.386719 533.78125 " fill-opacity="1" fill-rule="nonzero"/><path fill="#cc104a" d="M 529.871094 537.40625 L 529.871094 774.890625 C 529.871094 779.347656 526.527344 782.695312 522.347656 782.695312 L 464.648438 782.695312 L 464.648438 533.78125 L 526.527344 533.78125 C 528.480469 533.78125 529.871094 535.453125 529.871094 537.40625 Z M 529.871094 537.40625 " fill-opacity="1" fill-rule="nonzero"/><path fill="#111d33" d="M 529.871094 537.40625 L 529.871094 774.890625 C 529.871094 779.347656 526.527344 782.695312 522.347656 782.695312 L 501.71875 782.695312 L 501.71875 533.78125 L 526.527344 533.78125 C 528.480469 533.78125 529.871094 535.453125 529.871094 537.40625 Z M 529.871094 537.40625 " fill-opacity="0.2" fill-rule="nonzero"/><path fill="#ffffff" d="M 385.953125 705.246094 C 378.578125 702.183594 382.65625 690.8125 390.8125 694.042969 C 403.339844 699.097656 421.785156 700.207031 433.621094 694.558594 C 438.875 692.054688 441.503906 687.855469 441.503906 681.960938 C 441.503906 669.582031 430.648438 663.398438 408.9375 663.398438 L 406.582031 663.398438 C 404.910156 663.398438 403.460938 662.78125 402.234375 661.554688 C 398.242188 657.5625 401.222656 651.019531 406.582031 651.019531 L 407.464844 651.019531 C 421.9375 651.019531 437.820312 647.664062 437.820312 633.1875 C 437.820312 614.820312 408.082031 615.109375 391.699219 622.726562 C 384.378906 625.65625 380.460938 616.199219 386.539062 612.855469 C 411.621094 599.53125 451.230469 602.566406 451.230469 631.863281 C 451.230469 638.640625 449.535156 643.972656 446.144531 647.851562 C 442.757812 651.734375 438.507812 654.605469 433.398438 656.46875 C 439 657.746094 443.984375 660.425781 448.355469 664.5 C 452.726562 668.578125 454.914062 674.644531 454.914062 682.699219 C 454.914062 712.679688 413.964844 716.683594 385.953125 705.246094 Z M 385.953125 705.246094 " fill-opacity="1" fill-rule="nonzero"/><path fill="#111d33" d="M 1055.234375 733.515625 L 976.476562 781.933594 L 946.898438 748.488281 C 946.898438 748.488281 945.367188 741.878906 944.199219 732.707031 L 1050.921875 732.707031 C 1052.539062 732.707031 1054.203125 732.933594 1055.234375 733.515625 Z M 1055.234375 733.515625 " fill-opacity="0.2" fill-rule="nonzero"/><path fill="#ffde9b" d="M 977.464844 462.589844 C 974.558594 462.597656 744.636719 463.355469 759.035156 463.308594 L 750.449219 445.460938 C 951.199219 445.648438 943.234375 444.789062 946.042969 445.910156 L 976.339844 462.003906 C 976.746094 462.183594 977.152344 462.363281 977.464844 462.589844 Z M 977.464844 462.589844 " fill-opacity="1" fill-rule="nonzero"/><path fill="#ffb961" d="M 981.710938 469.949219 L 981.710938 773.773438 C 981.710938 778.789062 977.804688 782.695312 973.066406 782.695312 L 767.914062 782.695312 C 762.898438 782.695312 758.996094 778.789062 758.996094 773.773438 L 758.996094 469.949219 C 758.996094 465.210938 762.898438 461.308594 767.914062 461.308594 L 973.066406 461.308594 C 977.804688 461.308594 981.710938 465.210938 981.710938 469.949219 Z M 981.710938 469.949219 " fill-opacity="1" fill-rule="nonzero"/><path fill="#ffd475" d="M 981.710938 469.949219 L 981.710938 773.773438 C 981.710938 778.789062 977.804688 782.695312 973.066406 782.695312 L 913.695312 782.695312 L 913.695312 461.308594 L 973.066406 461.308594 C 977.804688 461.308594 981.710938 465.210938 981.710938 469.949219 Z M 981.710938 469.949219 " fill-opacity="1" fill-rule="nonzero"/><path fill="#f3a250" d="M 827.007812 461.308594 L 827.007812 782.695312 L 767.914062 782.695312 C 762.898438 782.695312 758.996094 778.789062 758.996094 773.773438 L 758.996094 469.949219 C 758.996094 465.210938 762.898438 461.308594 767.914062 461.308594 Z M 827.007812 461.308594 " fill-opacity="1" fill-rule="nonzero"/><path fill="#51383c" d="M 786.3125 461.308594 L 786.3125 782.695312 L 767.914062 782.695312 C 762.898438 782.695312 758.996094 778.789062 758.996094 773.773438 L 758.996094 469.949219 C 758.996094 465.210938 762.898438 461.308594 767.914062 461.308594 Z M 786.3125 461.308594 " fill-opacity="0.2" fill-rule="nonzero"/><path fill="#ffffff" d="M 834.398438 666.503906 C 834.398438 640.199219 876.011719 629.199219 889.804688 610.804688 C 895.5 603.210938 893.96875 592.953125 887.8125 587.449219 C 878.546875 579.171875 856.355469 582.707031 844.859375 587.816406 C 837.617188 591.445312 832.9375 581.042969 839.703125 577.355469 C 871.269531 561.574219 906.308594 571.171875 906.308594 599.75 C 906.308594 630.46875 856.019531 644.046875 847.808594 661.640625 C 901.199219 662.242188 900.347656 660.253906 903.582031 663.484375 C 907.507812 667.410156 904.90625 674.164062 899.085938 674.164062 L 842.207031 674.164062 C 837.828125 674.164062 834.398438 671.195312 834.398438 666.503906 Z M 834.398438 666.503906 " fill-opacity="1" fill-rule="nonzero"/><path fill="#111d33" d="M 527.324219 796.722656 L 437.03125 782.652344 L 842.914062 782.652344 L 761.648438 796.722656 Z M 527.324219 796.722656 " fill-opacity="0.2" fill-rule="nonzero"/><path fill="#78e75a" d="M 766.59375 383.5625 L 766.550781 383.5625 C 764.648438 384.097656 706.96875 400.421875 698.078125 400.421875 C 689.039062 400.421875 604.175781 401.277344 598.960938 400.421875 C 593.746094 399.609375 564.425781 396.0625 564.425781 396.0625 L 522.132812 383.882812 L 535.46875 362.210938 C 536.6875 361.273438 538.183594 360.757812 539.660156 360.757812 C 766.285156 360.894531 753.9375 359.753906 757.0625 362.703125 Z M 766.59375 383.5625 " fill-opacity="1" fill-rule="nonzero"/><path fill="#5ec363" d="M 768.472656 388.277344 L 768.472656 789.945312 C 768.472656 793.5625 765.410156 796.632812 761.78125 796.632812 L 527.363281 796.632812 C 523.460938 796.632812 520.675781 793.5625 520.675781 789.945312 L 520.675781 388.277344 C 520.675781 384.378906 523.460938 381.308594 527.363281 381.308594 L 761.78125 381.308594 C 765.410156 381.308594 768.472656 384.378906 768.472656 388.277344 Z M 768.472656 388.277344 " fill-opacity="1" fill-rule="nonzero"/><path fill="#72d561" d="M 609.589844 381.308594 L 609.589844 796.632812 L 527.363281 796.632812 C 523.460938 796.632812 520.675781 793.5625 520.675781 789.945312 L 520.675781 388.277344 C 520.675781 384.378906 523.460938 381.308594 527.363281 381.308594 Z M 609.589844 381.308594 " fill-opacity="1" fill-rule="nonzero"/><path fill="#50b069" d="M 768.472656 388.277344 L 768.472656 789.945312 C 768.472656 793.5625 765.410156 796.632812 761.78125 796.632812 L 674.820312 796.632812 L 674.820312 381.308594 L 761.78125 381.308594 C 765.410156 381.308594 768.472656 384.378906 768.472656 388.277344 Z M 768.472656 388.277344 " fill-opacity="1" fill-rule="nonzero"/><path fill="#ffffff" d="M 622.25 627.871094 L 639.785156 627.871094 L 639.785156 553.164062 C 627.347656 559.015625 624.152344 561.414062 621.367188 561.414062 C 614.210938 561.414062 612.664062 552.132812 618.859375 549.039062 C 638.6875 539.039062 639.367188 537.542969 643.027344 537.542969 L 646.121094 537.542969 C 650.070312 537.542969 653.191406 540.664062 653.191406 544.617188 L 653.191406 627.871094 L 667.78125 627.871094 C 676.054688 627.871094 676.34375 640.398438 667.78125 640.398438 L 622.25 640.398438 C 613.875 640.398438 614.160156 627.871094 622.25 627.871094 Z M 622.25 627.871094 " fill-opacity="1" fill-rule="nonzero"/><path fill="#ffffff" d="M 926.644531 529.0625 L 932.757812 543.464844 L 924.222656 530.332031 C 923.179688 528.726562 920.5 529.160156 919.839844 530.789062 L 909.097656 557.347656 L 915.066406 529.316406 C 915.4375 527.574219 913.4375 525.742188 911.675781 526.492188 L 897.277344 532.59375 L 910.414062 524.082031 C 912.011719 523.042969 911.601562 520.367188 909.957031 519.703125 L 883.375 508.949219 L 911.417969 514.929688 C 912.230469 515.101562 913.054688 514.800781 913.609375 514.183594 C 913.652344 514.132812 913.699219 514.082031 913.742188 514.035156 C 914.375 513.355469 914.601562 512.390625 914.238281 511.535156 L 908.132812 497.136719 L 916.660156 510.269531 C 917.703125 511.875 920.378906 511.449219 921.039062 509.816406 L 931.78125 483.253906 L 925.816406 511.28125 C 925.445312 513.023438 927.445312 514.855469 929.207031 514.109375 L 943.617188 508.007812 L 930.46875 516.519531 C 928.871094 517.554688 929.28125 520.234375 930.925781 520.898438 L 957.519531 531.664062 L 929.464844 525.671875 C 927.714844 525.296875 925.898438 527.300781 926.644531 529.0625 Z M 926.644531 529.0625 " fill-opacity="1" fill-rule="nonzero"/><path fill="#4c5c75" d="M 669.800781 206.914062 L 669.800781 371.277344 C 669.800781 380.851562 618.890625 380.851562 618.890625 371.277344 L 618.890625 206.914062 Z M 669.800781 206.914062 " fill-opacity="1" fill-rule="nonzero"/><path fill="#1d2943" d="M 669.800781 206.914062 L 669.800781 371.277344 C 669.800781 376.246094 656.132812 378.628906 642.960938 378.449219 L 642.960938 206.914062 Z M 669.800781 206.914062 " fill-opacity="1" fill-rule="nonzero"/><path fill="#ffd475" d="M 728.933594 227.382812 C 727.828125 228.46875 727.316406 230.046875 727.570312 231.597656 L 745.046875 333.582031 C 745.734375 337.46875 741.625 340.453125 738.148438 338.605469 L 646.554688 290.433594 C 645.875 290.070312 645.109375 289.878906 644.34375 289.878906 C 643.574219 289.878906 642.808594 290.070312 642.128906 290.433594 L 550.535156 338.605469 C 546.980469 340.449219 542.980469 337.402344 543.636719 333.582031 C 561.472656 228.339844 562.816406 230.195312 559.773438 227.382812 L 485.652344 155.160156 C 482.777344 152.3125 484.546875 147.554688 488.292969 147.050781 L 590.699219 132.148438 C 592.066406 131.972656 593.527344 131.089844 594.277344 129.554688 L 640.085938 36.746094 C 641.832031 33.210938 646.890625 33.242188 648.621094 36.746094 L 694.429688 129.554688 C 695.15625 131.050781 696.539062 131.945312 698.003906 132.148438 L 800.414062 147.050781 C 804.34375 147.617188 805.863281 152.425781 803.03125 155.160156 Z M 728.933594 227.382812 " fill-opacity="1" fill-rule="nonzero"/><path fill="#f3a250" d="M 741.195312 339.09375 L 644.34375 206.246094 L 728.933594 227.382812 C 727.828125 228.46875 727.316406 230.046875 727.570312 231.597656 L 745.046875 333.582031 C 745.535156 336.347656 743.597656 338.648438 741.195312 339.09375 Z M 741.195312 339.09375 " fill-opacity="1" fill-rule="nonzero"/><path fill="#f3a250" d="M 804.414062 150.925781 L 644.34375 206.246094 L 695.917969 131.320312 C 696.515625 131.746094 697.238281 132.042969 698.003906 132.148438 L 800.414062 147.050781 C 802.625 147.371094 804.074219 149.03125 804.414062 150.925781 Z M 804.414062 150.925781 " fill-opacity="1" fill-rule="nonzero"/><path fill="#f3a250" d="M 644.34375 34.105469 L 644.34375 206.246094 L 592.105469 131.703125 C 594.894531 130.433594 592.046875 133.273438 640.085938 36.746094 C 640.957031 34.980469 642.660156 34.105469 644.34375 34.105469 Z M 644.34375 34.105469 " fill-opacity="1" fill-rule="nonzero"/><path fill="#f3a250" d="M 644.34375 206.246094 L 560.941406 229.214844 C 559.984375 226.425781 558.199219 226.078125 485.652344 155.160156 C 483.652344 153.179688 483.867188 150.160156 485.613281 148.414062 Z M 644.34375 206.246094 " fill-opacity="1" fill-rule="nonzero"/><path fill="#f3a250" d="M 644.34375 206.246094 L 644.34375 289.878906 C 643.574219 289.878906 642.808594 290.070312 642.128906 290.433594 L 550.535156 338.605469 C 548.9375 339.433594 547.234375 339.285156 545.894531 338.476562 Z M 644.34375 206.246094 " fill-opacity="1" fill-rule="nonzero"/><path fill="#ffffff" d="M 683.242188 192.804688 C 709.511719 180.144531 737.234375 170.535156 765.722656 164.296875 C 739.460938 176.980469 711.722656 186.539062 683.242188 192.804688 Z M 683.242188 192.804688 " fill-opacity="1" fill-rule="nonzero"/><path fill="#ffffff" d="M 618.222656 196.730469 C 590.171875 190.140625 562.941406 180.1875 537.210938 167.214844 C 549.222656 170.800781 577.007812 175.898438 618.222656 196.730469 Z M 618.222656 196.730469 " fill-opacity="1" fill-rule="nonzero"/></svg>