<svg xmlns="http://www.w3.org/2000/svg" xmlns:xlink="http://www.w3.org/1999/xlink" width="1920" zoomAndPan="magnify" viewBox="0 0 1440 959.999988" height="1280" preserveAspectRatio="xMidYMid meet" version="1.0"><path fill="#c9cee2" d="M 912 619.082031 L 911.828125 666.316406 C 911.824219 669.125 908.351562 671.402344 904.070312 671.402344 L 537.875 671.402344 C 533.601562 671.402344 530.136719 669.136719 530.117188 666.332031 L 529.289062 619.515625 Z M 912 619.082031 " fill-opacity="1" fill-rule="nonzero"/><path fill="#b0b8cf" d="M 591.144531 619.445312 L 529.289062 619.515625 L 530.117188 666.332031 C 530.136719 669.136719 533.601562 671.402344 537.875 671.402344 L 591.144531 671.402344 Z M 591.144531 619.445312 " fill-opacity="1" fill-rule="nonzero"/><path fill="#b0b8cf" d="M 634.855469 619.398438 L 709.539062 619.308594 L 709.597656 671.359375 L 634.917969 671.445312 Z M 634.855469 619.398438 " fill-opacity="1" fill-rule="nonzero"/><path fill="#b0b8cf" d="M 770.882812 619.246094 L 832.765625 619.171875 L 832.828125 671.363281 L 770.945312 671.4375 Z M 770.882812 619.246094 " fill-opacity="1" fill-rule="nonzero"/><path fill="#b0b8cf" d="M 868.542969 619.132812 L 868.542969 671.402344 L 904.070312 671.402344 C 908.351562 671.402344 911.824219 669.125 911.828125 666.316406 L 912 619.082031 Z M 868.542969 619.132812 " fill-opacity="1" fill-rule="nonzero"/><path fill="#e3e7f0" d="M 908.488281 621.15625 L 532.664062 621.15625 C 530.097656 621.15625 528.515625 619.691406 529.480469 618.011719 L 541.117188 589.863281 C 541.757812 588.765625 543.511719 588.417969 544.761719 588.417969 L 895.003906 588.417969 C 895.699219 588.417969 896.414062 588.511719 896.855469 588.765625 L 896.875 588.765625 C 897.03125 588.839844 897.144531 588.9375 897.222656 589.035156 C 897.742188 589.476562 897.667969 589.457031 897.996094 589.863281 L 911.671875 618.011719 C 912.636719 619.476562 911.035156 621.15625 908.488281 621.15625 Z M 908.488281 621.15625 " fill-opacity="1" fill-rule="nonzero"/><path fill="#111d33" d="M 601.40625 588.417969 C 598.960938 594.039062 577.726562 607.59375 576.519531 608.558594 L 541.675781 589.226562 C 543.695312 587.808594 543.128906 588.65625 601.40625 588.417969 Z M 601.40625 588.417969 " fill-opacity="0.2" fill-rule="nonzero"/><path fill="#fe90a9" d="M 675.683594 495.964844 L 672.363281 504.472656 C 625.824219 504.105469 573.910156 503.695312 577.191406 503.71875 L 578.0625 503.257812 C 590.683594 496.820312 590.890625 496.273438 592.085938 496.273438 C 593.285156 496.269531 681.265625 495.945312 675.683594 495.964844 Z M 675.683594 495.964844 " fill-opacity="1" fill-rule="nonzero"/><path fill="#e93565" d="M 671.386719 504.597656 L 671.386719 606.519531 C 671.386719 608.433594 669.953125 609.871094 668.15625 609.871094 L 579.152344 609.871094 C 577.359375 609.871094 575.804688 608.433594 575.804688 606.519531 L 575.804688 506.390625 C 575.804688 504.597656 577.359375 503.042969 579.152344 503.042969 L 669.953125 503.042969 C 670.789062 503.042969 671.386719 503.761719 671.386719 504.597656 Z M 671.386719 504.597656 " fill-opacity="1" fill-rule="nonzero"/><path fill="#f45170" d="M 603.796875 503.042969 L 603.796875 609.871094 L 579.152344 609.871094 C 577.359375 609.871094 575.804688 608.433594 575.804688 606.519531 L 575.804688 506.390625 C 575.804688 504.597656 577.359375 503.042969 579.152344 503.042969 Z M 603.796875 503.042969 " fill-opacity="1" fill-rule="nonzero"/><path fill="#cc104a" d="M 671.386719 504.597656 L 671.386719 606.519531 C 671.386719 608.433594 669.953125 609.871094 668.15625 609.871094 L 643.394531 609.871094 L 643.394531 503.042969 L 669.953125 503.042969 C 670.789062 503.042969 671.386719 503.761719 671.386719 504.597656 Z M 671.386719 504.597656 " fill-opacity="1" fill-rule="nonzero"/><path fill="#111d33" d="M 671.386719 504.597656 L 671.386719 606.519531 C 671.386719 608.433594 669.953125 609.871094 668.15625 609.871094 L 659.304688 609.871094 L 659.304688 503.042969 L 669.953125 503.042969 C 670.789062 503.042969 671.386719 503.761719 671.386719 504.597656 Z M 671.386719 504.597656 " fill-opacity="0.2" fill-rule="nonzero"/><path fill="#ffffff" d="M 609.621094 576.628906 C 606.457031 575.316406 608.207031 570.4375 611.707031 571.824219 C 617.082031 573.992188 624.996094 574.46875 630.078125 572.042969 C 632.332031 570.96875 633.460938 569.167969 633.460938 566.636719 C 633.460938 561.324219 628.800781 558.671875 619.484375 558.671875 L 618.472656 558.671875 C 617.757812 558.671875 617.132812 558.40625 616.609375 557.878906 C 614.894531 556.167969 616.171875 553.359375 618.472656 553.359375 L 618.851562 553.359375 C 625.0625 553.359375 631.878906 551.917969 631.878906 545.707031 C 631.878906 537.824219 619.117188 537.949219 612.085938 541.214844 C 608.945312 542.472656 607.265625 538.414062 609.871094 536.980469 C 620.636719 531.261719 637.636719 532.5625 637.636719 545.136719 C 637.636719 548.046875 636.90625 550.332031 635.453125 552 C 634 553.664062 632.175781 554.898438 629.984375 555.695312 C 632.386719 556.246094 634.527344 557.394531 636.402344 559.144531 C 638.277344 560.894531 639.214844 563.496094 639.214844 566.953125 C 639.214844 579.820312 621.644531 581.539062 609.621094 576.628906 Z M 609.621094 576.628906 " fill-opacity="1" fill-rule="nonzero"/><path fill="#111d33" d="M 896.855469 588.765625 L 863.054688 609.542969 L 850.359375 595.1875 C 850.359375 595.1875 849.703125 592.351562 849.203125 588.417969 L 895.003906 588.417969 C 895.699219 588.417969 896.414062 588.511719 896.855469 588.765625 Z M 896.855469 588.765625 " fill-opacity="0.2" fill-rule="nonzero"/><path fill="#ffde9b" d="M 863.480469 472.488281 C 862.230469 472.496094 763.558594 472.820312 769.734375 472.800781 L 766.050781 465.140625 C 852.207031 465.21875 848.789062 464.851562 849.996094 465.332031 L 862.996094 472.238281 C 863.171875 472.316406 863.34375 472.394531 863.480469 472.488281 Z M 863.480469 472.488281 " fill-opacity="1" fill-rule="nonzero"/><path fill="#ffb961" d="M 865.300781 475.648438 L 865.300781 606.042969 C 865.300781 608.195312 863.625 609.871094 861.59375 609.871094 L 773.546875 609.871094 C 771.394531 609.871094 769.71875 608.195312 769.71875 606.042969 L 769.71875 475.648438 C 769.71875 473.613281 771.394531 471.941406 773.546875 471.941406 L 861.59375 471.941406 C 863.625 471.941406 865.300781 473.613281 865.300781 475.648438 Z M 865.300781 475.648438 " fill-opacity="1" fill-rule="nonzero"/><path fill="#ffd475" d="M 865.300781 475.648438 L 865.300781 606.042969 C 865.300781 608.195312 863.625 609.871094 861.59375 609.871094 L 836.113281 609.871094 L 836.113281 471.941406 L 861.59375 471.941406 C 863.625 471.941406 865.300781 473.613281 865.300781 475.648438 Z M 865.300781 475.648438 " fill-opacity="1" fill-rule="nonzero"/><path fill="#f3a250" d="M 798.910156 471.941406 L 798.910156 609.871094 L 773.546875 609.871094 C 771.394531 609.871094 769.71875 608.195312 769.71875 606.042969 L 769.71875 475.648438 C 769.71875 473.613281 771.394531 471.941406 773.546875 471.941406 Z M 798.910156 471.941406 " fill-opacity="1" fill-rule="nonzero"/><path fill="#51383c" d="M 781.445312 471.941406 L 781.445312 609.871094 L 773.546875 609.871094 C 771.394531 609.871094 769.71875 608.195312 769.71875 606.042969 L 769.71875 475.648438 C 769.71875 473.613281 771.394531 471.941406 773.546875 471.941406 Z M 781.445312 471.941406 " fill-opacity="0.2" fill-rule="nonzero"/><path fill="#ffffff" d="M 802.078125 560.003906 C 802.078125 548.714844 819.9375 543.992188 825.859375 536.097656 C 828.300781 532.839844 827.644531 528.4375 825.003906 526.074219 C 821.027344 522.523438 811.503906 524.039062 806.570312 526.234375 C 803.460938 527.792969 801.453125 523.328125 804.355469 521.742188 C 817.902344 514.972656 832.941406 519.089844 832.941406 531.355469 C 832.941406 544.539062 811.359375 550.367188 807.835938 557.917969 C 830.75 558.175781 830.382812 557.320312 831.769531 558.707031 C 833.457031 560.394531 832.339844 563.292969 829.84375 563.292969 L 805.429688 563.292969 C 803.550781 563.292969 802.078125 562.019531 802.078125 560.003906 Z M 802.078125 560.003906 " fill-opacity="1" fill-rule="nonzero"/><path fill="#111d33" d="M 670.292969 615.890625 L 631.542969 609.851562 L 805.734375 609.851562 L 770.859375 615.890625 Z M 670.292969 615.890625 " fill-opacity="0.2" fill-rule="nonzero"/><path fill="#78e75a" d="M 772.980469 438.574219 L 772.960938 438.574219 C 772.144531 438.804688 747.390625 445.808594 743.574219 445.808594 C 739.695312 445.808594 703.277344 446.175781 701.039062 445.808594 C 698.800781 445.460938 686.214844 443.9375 686.214844 443.9375 L 668.066406 438.710938 L 673.789062 429.410156 C 674.3125 429.007812 674.953125 428.789062 675.585938 428.789062 C 772.847656 428.84375 767.546875 428.355469 768.890625 429.621094 Z M 772.980469 438.574219 " fill-opacity="1" fill-rule="nonzero"/><path fill="#5ec363" d="M 773.785156 440.597656 L 773.785156 612.980469 C 773.785156 614.535156 772.472656 615.851562 770.914062 615.851562 L 670.308594 615.851562 C 668.636719 615.851562 667.441406 614.535156 667.441406 612.980469 L 667.441406 440.597656 C 667.441406 438.925781 668.636719 437.605469 670.308594 437.605469 L 770.914062 437.605469 C 772.472656 437.605469 773.785156 438.925781 773.785156 440.597656 Z M 773.785156 440.597656 " fill-opacity="1" fill-rule="nonzero"/><path fill="#72d561" d="M 705.597656 437.605469 L 705.597656 615.851562 L 670.308594 615.851562 C 668.636719 615.851562 667.441406 614.535156 667.441406 612.980469 L 667.441406 440.597656 C 667.441406 438.925781 668.636719 437.605469 670.308594 437.605469 Z M 705.597656 437.605469 " fill-opacity="1" fill-rule="nonzero"/><path fill="#50b069" d="M 773.785156 440.597656 L 773.785156 612.980469 C 773.785156 614.535156 772.472656 615.851562 770.914062 615.851562 L 733.59375 615.851562 L 733.59375 437.605469 L 770.914062 437.605469 C 772.472656 437.605469 773.785156 438.925781 773.785156 440.597656 Z M 773.785156 440.597656 " fill-opacity="1" fill-rule="nonzero"/><path fill="#ffffff" d="M 711.03125 543.425781 L 718.558594 543.425781 L 718.558594 511.363281 C 713.21875 513.875 711.847656 514.902344 710.652344 514.902344 C 707.582031 514.902344 706.917969 510.917969 709.578125 509.59375 C 718.085938 505.300781 718.378906 504.660156 719.949219 504.660156 L 721.277344 504.660156 C 722.972656 504.660156 724.3125 505.996094 724.3125 507.695312 L 724.3125 543.425781 L 730.574219 543.425781 C 734.121094 543.425781 734.25 548.800781 730.574219 548.800781 L 711.03125 548.800781 C 707.4375 548.800781 707.558594 543.425781 711.03125 543.425781 Z M 711.03125 543.425781 " fill-opacity="1" fill-rule="nonzero"/><path fill="#ffffff" d="M 841.671875 501.019531 L 844.292969 507.199219 L 840.628906 501.5625 C 840.183594 500.875 839.03125 501.058594 838.75 501.757812 L 834.140625 513.15625 L 836.699219 501.128906 C 836.859375 500.378906 836 499.59375 835.246094 499.914062 L 829.066406 502.535156 L 834.703125 498.878906 C 835.390625 498.433594 835.214844 497.285156 834.507812 497 L 823.097656 492.386719 L 835.132812 494.953125 C 835.484375 495.027344 835.835938 494.898438 836.074219 494.632812 C 836.09375 494.609375 836.113281 494.589844 836.132812 494.570312 C 836.402344 494.277344 836.5 493.863281 836.34375 493.496094 L 833.726562 487.316406 L 837.382812 492.953125 C 837.832031 493.640625 838.980469 493.457031 839.265625 492.757812 L 843.875 481.359375 L 841.3125 493.386719 C 841.152344 494.136719 842.011719 494.921875 842.769531 494.601562 L 848.953125 491.980469 L 843.3125 495.636719 C 842.625 496.078125 842.800781 497.230469 843.507812 497.515625 L 854.917969 502.132812 L 842.878906 499.5625 C 842.128906 499.402344 841.347656 500.261719 841.671875 501.019531 Z M 841.671875 501.019531 " fill-opacity="1" fill-rule="nonzero"/><path fill="#4c5c75" d="M 731.4375 362.761719 L 731.4375 433.300781 C 731.4375 437.410156 709.589844 437.410156 709.589844 433.300781 L 709.589844 362.761719 Z M 731.4375 362.761719 " fill-opacity="1" fill-rule="nonzero"/><path fill="#1d2943" d="M 731.4375 362.761719 L 731.4375 433.300781 C 731.4375 435.433594 725.574219 436.457031 719.921875 436.378906 L 719.921875 362.761719 Z M 731.4375 362.761719 " fill-opacity="1" fill-rule="nonzero"/><path fill="#ffd475" d="M 756.816406 371.546875 C 756.34375 372.011719 756.125 372.6875 756.234375 373.355469 L 763.734375 417.125 C 764.027344 418.792969 762.265625 420.074219 760.773438 419.28125 L 721.464844 398.605469 C 721.171875 398.449219 720.84375 398.367188 720.511719 398.367188 C 720.183594 398.367188 719.855469 398.449219 719.5625 398.605469 L 680.253906 419.28125 C 678.730469 420.070312 677.011719 418.761719 677.292969 417.125 C 684.949219 371.957031 685.523438 372.753906 684.21875 371.546875 L 652.410156 340.550781 C 651.175781 339.328125 651.933594 337.285156 653.542969 337.070312 L 697.492188 330.675781 C 698.078125 330.597656 698.703125 330.222656 699.027344 329.5625 L 718.6875 289.730469 C 719.4375 288.214844 721.605469 288.226562 722.351562 289.730469 L 742.007812 329.5625 C 742.320312 330.203125 742.914062 330.589844 743.542969 330.675781 L 787.492188 337.070312 C 789.179688 337.3125 789.832031 339.378906 788.617188 340.550781 Z M 756.816406 371.546875 " fill-opacity="1" fill-rule="nonzero"/><path fill="#f3a250" d="M 762.078125 419.488281 L 720.511719 362.476562 L 756.816406 371.546875 C 756.34375 372.011719 756.125 372.6875 756.234375 373.355469 L 763.734375 417.125 C 763.941406 418.3125 763.113281 419.296875 762.078125 419.488281 Z M 762.078125 419.488281 " fill-opacity="1" fill-rule="nonzero"/><path fill="#f3a250" d="M 789.210938 338.734375 L 720.511719 362.476562 L 742.648438 330.320312 C 742.90625 330.5 743.214844 330.628906 743.542969 330.675781 L 787.492188 337.070312 C 788.445312 337.207031 789.066406 337.917969 789.210938 338.734375 Z M 789.210938 338.734375 " fill-opacity="1" fill-rule="nonzero"/><path fill="#f3a250" d="M 720.511719 288.597656 L 720.511719 362.476562 L 698.09375 330.484375 C 699.292969 329.9375 698.070312 331.15625 718.6875 289.730469 C 719.0625 288.972656 719.792969 288.597656 720.511719 288.597656 Z M 720.511719 288.597656 " fill-opacity="1" fill-rule="nonzero"/><path fill="#f3a250" d="M 720.511719 362.476562 L 684.722656 372.332031 C 684.308594 371.136719 683.542969 370.988281 652.410156 340.550781 C 651.550781 339.699219 651.640625 338.402344 652.390625 337.65625 Z M 720.511719 362.476562 " fill-opacity="1" fill-rule="nonzero"/><path fill="#f3a250" d="M 720.511719 362.476562 L 720.511719 398.367188 C 720.183594 398.367188 719.855469 398.449219 719.5625 398.605469 L 680.253906 419.28125 C 679.570312 419.636719 678.839844 419.570312 678.261719 419.222656 Z M 720.511719 362.476562 " fill-opacity="1" fill-rule="nonzero"/><path fill="#ffffff" d="M 737.207031 356.707031 C 748.484375 351.273438 760.378906 347.148438 772.605469 344.472656 C 761.335938 349.914062 749.429688 354.015625 737.207031 356.707031 Z M 737.207031 356.707031 " fill-opacity="1" fill-rule="nonzero"/><path fill="#ffffff" d="M 709.304688 358.390625 C 697.265625 355.5625 685.578125 351.292969 674.535156 345.722656 C 679.691406 347.261719 691.617188 349.449219 709.304688 358.390625 Z M 709.304688 358.390625 " fill-opacity="1" fill-rule="nonzero"/></svg>