<svg width="296" height="280" viewBox="0 0 296 280" fill="none" xmlns="http://www.w3.org/2000/svg">
<path d="M213.857 86.066C202.186 90.0444 192.587 98.2157 187.093 108.85L128.877 90.4694C130.35 82.6377 129.654 74.5739 126.858 67.0818C125.895 64.4941 124.691 61.9943 123.261 59.6125L150.905 38.946C159.678 46.9852 171.307 51.5414 183.451 51.6972C195.594 51.8531 207.35 47.597 216.352 39.7858C225.354 31.9747 230.933 21.1885 231.967 9.59875C233 -1.99104 229.411 -13.5238 221.922 -22.6777C214.433 -31.8317 203.6 -37.9271 191.604 -39.7369C179.608 -41.5466 167.34 -38.9363 157.269 -32.4315C147.199 -25.9267 140.074 -16.0103 137.328 -4.67883C134.583 6.65268 136.421 18.5579 142.473 28.6401L114.815 49.364C108.401 43.4849 100.408 39.4293 91.7255 37.6497C83.0435 35.8701 74.015 36.4366 65.6477 39.286C61.5045 40.6996 57.5867 42.6589 54.0075 45.1075L26.4217 17.3564C33.5569 8.66077 37.1745 -2.20896 36.6089 -13.253C36.0433 -24.297 31.3326 -34.7724 23.3434 -42.7519C15.3542 -50.7314 4.62395 -55.6782 -6.87317 -56.6822C-18.3703 -57.6862 -29.8609 -54.6799 -39.2309 -48.2164C-48.6009 -41.7529 -55.2201 -32.2669 -57.8706 -21.5038C-60.5211 -10.7406 -59.0246 0.575742 -53.6565 10.3633C-48.2883 20.1508 -39.4097 27.7511 -28.654 31.7659C-17.8983 35.7807 -5.98906 35.9399 4.88259 32.2142C9.02584 30.8006 12.9435 28.8413 16.5228 26.3927L44.1086 54.1439C40.1565 58.9398 37.2457 64.4441 35.5475 70.3328C33.8492 76.2215 33.3979 82.3756 34.22 88.4329C35.0422 94.4902 37.1211 100.328 40.3346 105.604C43.5481 110.879 47.8312 115.485 52.9317 119.151L19.1717 178.006C7.83455 173.931 -4.69495 174.12 -15.8958 178.535C-27.0966 182.95 -36.1376 191.264 -41.1995 201.803C-46.2614 212.343 -46.9687 224.325 -43.179 235.341C-39.3892 246.356 -31.3838 255.586 -20.7734 261.174C-10.163 266.762 2.265 268.293 14.0099 265.459C25.7548 262.626 35.945 255.637 42.5303 245.9C49.1155 236.163 51.6069 224.4 49.5034 212.978C47.3998 201.556 40.8573 191.322 31.1923 184.336L64.8879 125.503C75.9713 129.497 88.2101 129.404 99.2296 125.244C110.249 121.083 119.264 113.151 124.524 102.986L182.74 121.367C180.918 131.301 182.565 141.533 187.425 150.478C192.285 159.424 200.087 166.585 209.625 170.855C219.164 175.125 229.906 176.266 240.192 174.101C250.478 171.936 259.734 166.586 266.528 158.878C273.323 151.17 277.277 141.534 277.78 131.459C278.283 121.385 275.306 111.434 269.31 103.145C263.314 94.8564 254.632 88.6917 244.609 85.6044C234.585 82.5172 223.777 82.6794 213.857 86.066ZM172.502 -25.0603C178.877 -27.2388 185.783 -27.5579 192.346 -25.9773C198.909 -24.3968 204.835 -20.9875 209.374 -16.1807C213.913 -11.3739 216.861 -5.38535 217.845 1.02752C218.83 7.44041 217.807 13.9896 214.905 19.8471C212.004 25.7045 207.354 30.607 201.545 33.9346C195.735 37.2623 189.026 38.8656 182.267 38.5418C175.507 38.2181 169 35.9818 163.569 32.1158C158.138 28.2498 154.027 22.9276 151.755 16.8224C148.708 8.6356 149.182 -0.37634 153.073 -8.23088C156.964 -16.0854 163.952 -22.1392 172.502 -25.0603ZM-43.4344 0.0127465C-45.7065 -6.09245 -46.037 -12.7065 -44.3841 -18.9931C-42.7313 -25.2796 -39.1694 -30.9563 -34.1488 -35.3053C-29.1282 -39.6543 -22.8744 -42.4802 -16.1783 -43.4257C-9.48214 -44.3712 -2.64443 -43.3938 3.47021 -40.6172C9.58483 -37.8405 14.7018 -33.3893 18.1739 -27.8264C21.6461 -22.2635 23.3175 -15.8388 22.9768 -9.36468C22.6361 -2.89056 20.2987 3.34217 16.26 8.54534C12.2214 13.7485 6.66293 17.6884 0.287559 19.8668C-8.26154 22.788 -17.6708 22.3374 -25.8703 18.614C-34.0697 14.8906 -40.3878 8.19957 -43.4344 0.0127465ZM13.9342 251.801C7.55888 253.979 0.652954 254.298 -5.91024 252.718C-12.4734 251.137 -18.3991 247.728 -22.9379 242.921C-27.4768 238.114 -30.4249 232.126 -31.4095 225.713C-32.3941 219.3 -31.3709 212.751 -28.4694 206.894C-25.5679 201.036 -20.9184 196.134 -15.1088 192.806C-9.29918 189.478 -2.59043 187.875 4.1691 188.199C10.9286 188.522 17.4354 190.759 22.8665 194.625C28.2975 198.491 32.4091 203.813 34.6811 209.918C37.7278 218.105 37.2536 227.117 33.3628 234.971C29.472 242.826 22.4833 248.88 13.9342 251.801ZM93.2179 113.37C86.8425 115.549 79.9366 115.868 73.3734 114.287C66.8102 112.707 60.8845 109.297 56.3457 104.491C51.8069 99.6838 48.8588 93.6953 47.8742 87.2824C46.8896 80.8695 47.9127 74.3203 50.8142 68.4629C53.7157 62.6055 58.3652 57.703 64.1748 54.3753C69.9845 51.0477 76.6932 49.4444 83.4528 49.7681C90.2123 50.0919 96.719 52.3282 102.15 56.1942C107.581 60.0602 111.693 65.3823 113.965 71.4875C117.011 79.6743 116.537 88.6863 112.646 96.5408C108.756 104.395 101.767 110.449 93.2179 113.37ZM241.427 160.15C235.052 162.329 228.146 162.648 221.583 161.067C215.019 159.487 209.094 156.077 204.555 151.271C200.016 146.464 197.068 140.475 196.083 134.062C195.099 127.65 196.122 121.1 199.023 115.243C201.925 109.385 206.574 104.483 212.384 101.155C218.194 97.8277 224.902 96.2244 231.662 96.5481C238.421 96.8719 244.928 99.1081 250.359 102.974C255.79 106.84 259.902 112.162 262.174 118.268C265.221 126.454 264.746 135.466 260.856 143.321C256.965 151.175 249.976 157.229 241.427 160.15Z" fill="#5118D6" fill-opacity="0.3"/>
</svg>
