<svg width="185" height="165" viewBox="0 0 185 165" fill="none" xmlns="http://www.w3.org/2000/svg">
<g clip-path="url(#clip0_2862_3992)">
<path d="M110.695 135.208L110.676 141.121C112.443 141.126 114.14 140.509 115.393 139.404C116.646 138.299 117.353 136.797 117.358 135.229L110.695 135.208ZM57.3884 135.041L50.7251 135.021C50.7202 136.589 51.4175 138.095 52.6637 139.207C53.9098 140.32 55.6027 140.948 57.3699 140.954L57.3884 135.041ZM63.9592 164.625L103.939 164.75L103.976 152.925L63.9962 152.8L63.9592 164.625ZM32.0271 62.8291L31.8912 63.6564L45.0793 65.3532L45.2285 64.5259L32.0271 62.8291ZM84.3931 22.7876C71.6894 22.746 59.3987 26.773 49.7788 34.1288C40.1589 41.4846 33.8557 51.6754 32.0271 62.8291L45.2285 64.5259C46.5988 56.1918 51.2984 48.5782 58.4884 43.0832C65.6785 37.5882 74.8632 34.5806 84.3561 34.6126L84.3931 22.7876ZM136.507 63.156C134.749 51.991 128.509 41.7611 118.936 34.3452C109.362 26.9293 97.0967 22.8255 84.3931 22.7876L84.3561 34.6126C93.8481 34.6425 103.012 37.7083 110.167 43.2478C117.322 48.7872 121.988 56.4287 123.309 64.7702L136.507 63.156ZM136.638 63.9841L136.507 63.156L123.309 64.7702L123.426 65.5983L136.638 63.9841ZM126 99.296C134.425 89.6968 138.702 77.1756 136.638 63.9841L123.44 65.6102C124.188 70.2625 123.87 75.0003 122.505 79.5396C121.14 84.0788 118.755 88.326 115.494 92.0262L126 99.296ZM104.091 116.267L104.031 135.187L117.358 135.229L117.417 116.321L104.091 116.267ZM110.713 129.296L57.4069 129.129L57.3699 140.954L110.676 141.121L110.713 129.296ZM64.0517 135.062L64.1109 116.154L50.7843 116.112L50.7251 135.021L64.0517 135.062ZM31.8912 63.6564C30.8587 69.8701 31.2491 76.2056 33.039 82.2843C34.829 88.3629 37.9817 94.0597 42.3086 99.0342L52.8726 91.8303C49.6348 88.1097 47.2635 83.8477 45.9266 79.3C44.5897 74.7523 44.3016 70.0007 45.0793 65.3532L31.8912 63.6564ZM64.1109 116.142C64.1413 106.41 58.3302 98.1147 52.8593 91.8184L42.3086 99.0342C47.3944 104.904 50.8018 110.496 50.7843 116.101L64.1109 116.142ZM115.494 92.0144C109.971 98.2881 104.121 106.535 104.091 116.267L117.417 116.309C117.435 110.704 120.877 105.133 126 99.296L115.494 92.0144ZM77.8408 -12.7081L77.7668 10.9418L91.0933 10.9835L91.1673 -12.6664L77.8408 -12.7081ZM-15.7413 81.5998L10.9119 81.6831L10.9489 69.8582L-15.7043 69.7748L-15.7413 81.5998ZM157.504 82.1418L184.157 82.2252L184.194 70.4002L157.541 70.3168L157.504 82.1418ZM29.1171 30.2537L9.18277 12.4537L-0.278644 20.7962L19.6557 38.5962L29.1171 30.2537ZM149.03 39.001L169.076 21.3261L159.667 12.9245L139.621 30.5994L149.03 39.001Z" fill="#5118D6" fill-opacity="0.4"/>
</g>
<defs>
<clipPath id="clip0_2862_3992">
<rect width="199.9" height="177.375" fill="white" transform="translate(-15.4453 -13) rotate(0.179272)"/>
</clipPath>
</defs>
</svg>
